<svg xmlns="http://www.w3.org/2000/svg" xmlns:xlink="http://www.w3.org/1999/xlink" version="1.1" x="0px" y="0px" viewBox="0 0 100 125" enable-background="new 0 0 100 100" xml:space="preserve"><g><path d="M66.106,60.906c4.032-1.479,5.5-3.56,2.937-7.86c-0.344-0.576-0.29-0.193-0.275,0.126   C68.879,55.416,64.342,56.746,66.106,60.906z"/><path d="M64.064,55.303c-0.233-0.659-0.257-0.256-0.306,0.072c-0.342,2.305-5.204,2.746-4.301,7.297   C63.844,61.925,65.839,60.308,64.064,55.303z"/><path d="M72.074,58.052c3.648-2.214,4.683-4.648,1.562-8.405c-0.429-0.516-0.317-0.146-0.252,0.167   C73.849,52.05,69.429,54.098,72.074,58.052z"/><path d="M77.415,53.926c2.874-2.761,3.717-5.011,0.166-8.137c-0.475-0.419-0.317-0.089-0.211,0.193   C78.137,48.012,74.256,50.59,77.415,53.926z"/><path d="M58.273,56.868c-0.087-0.693-0.197-0.305-0.314,0.005c-0.83,2.184-5.699,1.564-5.766,6.244   c0.129-0.003,0.251-0.003,0.365,0.002C56.906,63.29,58.889,61.772,58.273,56.868z"/><path d="M84.722,43.392c1.518-3.537,1.304-5.939-2.926-7.431c-0.58-0.204-0.317,0.034-0.12,0.249   C83.116,37.775,80.492,41.558,84.722,43.392z"/><path d="M81.554,49.092c2.206-3.16,2.506-5.527-1.377-7.832c-0.528-0.313-0.317-0.028-0.165,0.222   C81.113,43.291,77.828,46.472,81.554,49.092z"/><path d="M15.278,43.392c4.229-1.834,1.607-5.617,3.045-7.182c0.198-0.215,0.46-0.453-0.12-0.249   C13.973,37.453,13.76,39.855,15.278,43.392z"/><path d="M18.445,49.092c3.727-2.62,0.442-5.801,1.543-7.611c0.152-0.25,0.362-0.535-0.166-0.222   C15.941,43.565,16.239,45.932,18.445,49.092z"/><path d="M92.732,40.382c-2.707-1.239-4.892-0.901-6.484,1.14c0.34-0.983,0.637-1.989,0.889-3.015   c3.068-1.887,2.958-5.82,0.239-8.89c-0.46-0.518-0.326-0.144-0.241,0.172c0.606,2.291-3.801,4.444-0.707,8.521   c0.258-1.036,0.471-2.098,0.637-3.185c0.14-0.915,0.393-0.33,0.245,0.028c-1.318,8.629-5.475,15.703-11.713,20.858   c-6.306,5.213-14.451,8.153-23.068,7.814c-0.758-0.03-1.696,0.182-2.529,0.583c-0.833-0.401-1.772-0.613-2.529-0.583   c-8.616,0.339-16.762-2.601-23.068-7.814c-6.238-5.155-10.396-12.229-11.713-20.858c-0.148-0.358,0.105-0.944,0.245-0.028   c0.166,1.087,0.379,2.149,0.637,3.185c3.094-4.077-1.313-6.23-0.707-8.521c0.084-0.316,0.218-0.691-0.242-0.172   c-2.719,3.07-2.828,7.004,0.239,8.89c0.252,1.027,0.549,2.032,0.89,3.015c-1.592-2.041-3.778-2.379-6.484-1.14   c-0.559,0.255-0.204,0.245,0.087,0.262c2.129,0.125,2.869,4.7,7.225,3.031c0.574,1.353,1.23,2.658,1.964,3.908   c-1.96-1.689-4.169-1.593-6.58,0.152c-0.498,0.36-0.152,0.28,0.137,0.24c2.112-0.294,3.733,4.048,7.678,1.56   c0.795,1.166,1.658,2.277,2.583,3.328c-2.332-1.383-4.575-0.875-6.706,1.375c-0.436,0.459-0.101,0.313,0.185,0.218   c2.091-0.703,4.571,3.412,8.109,0.093c0.738,0.731,1.507,1.429,2.306,2.09c0.254,0.209,0.511,0.415,0.77,0.618   c-2.515-0.854-4.662,0.081-6.441,2.665c-0.381,0.553-0.055,0.345,0.228,0.198c2.072-1.077,5.34,2.818,8.496-1.229   c1.013,0.664,2.061,1.274,3.14,1.827c-2.436-0.277-4.29,0.992-5.582,3.687c-0.29,0.605-0.001,0.349,0.257,0.159   c1.879-1.386,5.711,1.954,8.201-2.534c1.168,0.469,2.364,0.875,3.586,1.213c-2.505,0.235-4.119,1.906-4.883,4.893   c-0.173,0.676,0.071,0.356,0.294,0.11c1.638-1.799,6.236,0.838,7.861-4.267c1.355,0.234,2.734,0.389,4.129,0.458   c-2.352,0.781-3.548,2.75-3.654,5.802c-0.024,0.698,0.145,0.333,0.311,0.045c1.214-2.105,6.257-0.522,6.763-5.831   c0.477,0.021,1.041,0.113,1.599,0.335c-0.214,0.143-0.414,0.3-0.591,0.47c-0.245,0.264-0.47,0.571-0.664,0.926   c-0.009,0.02-0.019,0.038-0.03,0.055c-0.065,0.122-0.125,0.249-0.183,0.383c-0.077,0.179,0.006,0.386,0.186,0.463   c0.179,0.077,0.386-0.005,0.463-0.185c0.359-0.837,0.897-1.4,1.489-1.773c0.591,0.373,1.129,0.936,1.489,1.773   c0.076,0.179,0.284,0.262,0.463,0.185c0.179-0.077,0.261-0.284,0.185-0.463c-0.057-0.134-0.119-0.261-0.183-0.383   c-0.012-0.018-0.022-0.036-0.03-0.055c-0.194-0.356-0.42-0.662-0.665-0.926c-0.177-0.17-0.376-0.327-0.59-0.47   c0.557-0.222,1.121-0.314,1.598-0.335c0.506,5.309,5.549,3.726,6.763,5.831c0.165,0.288,0.335,0.652,0.311-0.045   c-0.105-3.052-1.302-5.021-3.654-5.802c1.395-0.069,2.774-0.223,4.129-0.458c1.625,5.105,6.223,2.468,7.862,4.267   c0.223,0.245,0.467,0.566,0.294-0.11c-0.764-2.987-2.377-4.658-4.883-4.893c1.222-0.339,2.419-0.744,3.586-1.213   c2.49,4.488,6.322,1.147,8.201,2.534c0.257,0.189,0.546,0.446,0.257-0.159c-1.292-2.695-3.147-3.964-5.582-3.687   c1.079-0.554,2.128-1.164,3.14-1.827c3.156,4.047,6.424,0.152,8.496,1.229c0.283,0.147,0.61,0.356,0.229-0.198   c-1.779-2.584-3.926-3.519-6.442-2.665c0.26-0.203,0.516-0.408,0.77-0.618c0.799-0.661,1.568-1.358,2.306-2.09   c3.539,3.319,6.018-0.796,8.11-0.093c0.286,0.096,0.62,0.242,0.185-0.218c-2.131-2.249-4.374-2.758-6.707-1.375   c0.926-1.051,1.789-2.162,2.583-3.328c3.945,2.489,5.566-1.853,7.678-1.56c0.289,0.04,0.634,0.12,0.137-0.24   c-2.411-1.745-4.621-1.84-6.581-0.152c0.733-1.251,1.389-2.555,1.963-3.908c4.355,1.669,5.095-2.906,7.224-3.031   C92.936,40.627,93.29,40.637,92.732,40.382z"/><path d="M47.442,63.119c0.114-0.005,0.236-0.006,0.365-0.002c-0.067-4.681-4.935-4.061-5.766-6.244   c-0.118-0.31-0.227-0.698-0.314-0.005C41.111,61.772,43.093,63.29,47.442,63.119z"/><path d="M22.585,53.926c3.158-3.335-0.723-5.913,0.044-7.944c0.106-0.282,0.265-0.612-0.211-0.193   C18.868,48.915,19.711,51.165,22.585,53.926z"/><path d="M40.543,62.672c0.903-4.551-3.959-4.993-4.301-7.297c-0.049-0.328-0.073-0.731-0.306-0.072   C34.161,60.308,36.156,61.925,40.543,62.672z"/><path d="M33.894,60.906c1.764-4.16-2.773-5.49-2.662-7.735c0.016-0.319,0.069-0.702-0.274-0.126   C28.394,57.346,29.862,59.427,33.894,60.906z"/><path d="M27.926,58.052c2.645-3.955-1.774-6.002-1.309-8.238c0.065-0.312,0.177-0.683-0.252-0.167   C23.242,53.404,24.278,55.838,27.926,58.052z"/></g><text x="0" y="115" fill="#000000" font-size="5px" font-weight="bold" font-family="'Helvetica Neue', Helvetica, Arial-Unicode, Arial, Sans-serif">Created by Daniela Baptista</text><text x="0" y="120" fill="#000000" font-size="5px" font-weight="bold" font-family="'Helvetica Neue', Helvetica, Arial-Unicode, Arial, Sans-serif">from the Noun Project</text></svg>